# Blender v2.90.0 OBJ File: 'tree_base.blend'
# www.blender.org
mtllib tree_base.mtl
o Cone_Cone.001
v 0.000000 0.000000 -0.600000
v 0.000000 3.000000 -0.300000
v 0.469099 0.000000 -0.374094
v 0.234549 3.000000 -0.187047
v 0.584957 0.000000 0.133513
v 0.292478 3.000000 0.066756
v 0.260330 0.000000 0.540581
v 0.130165 3.000000 0.270291
v -0.260330 0.000000 0.540581
v -0.130165 3.000000 0.270291
v -0.584957 0.000000 0.133513
v -0.292478 3.000000 0.066756
v -0.469099 0.000000 -0.374094
v -0.234549 3.000000 -0.187047
vt 1.000000 0.500000
vt 1.000000 1.000000
vt 0.857143 1.000000
vt 0.857143 0.500000
vt 0.714286 1.000000
vt 0.714286 0.500000
vt 0.571429 1.000000
vt 0.571429 0.500000
vt 0.428571 1.000000
vt 0.428571 0.500000
vt 0.285714 1.000000
vt 0.285714 0.500000
vt 0.437640 0.399638
vt 0.250000 0.490000
vt 0.062360 0.399638
vt 0.016017 0.196595
vt 0.145868 0.033767
vt 0.354132 0.033767
vt 0.483983 0.196595
vt 0.142857 1.000000
vt 0.142857 0.500000
vt 0.000000 1.000000
vt 0.000000 0.500000
vt 0.750000 0.490000
vt 0.937640 0.399638
vt 0.983983 0.196595
vt 0.854132 0.033767
vt 0.645868 0.033767
vt 0.516017 0.196595
vt 0.562360 0.399638
vn 0.4321 0.0897 -0.8973
vn 0.9710 0.0897 -0.2216
vn 0.7787 0.0897 0.6210
vn 0.0000 0.0897 0.9960
vn -0.7787 0.0897 0.6210
vn 0.0000 1.0000 -0.0000
vn -0.9710 0.0897 -0.2216
vn -0.4321 0.0897 -0.8973
vn 0.0000 -1.0000 0.0000
usemtl Material.001
s off
f 1/1/1 2/2/1 4/3/1 3/4/1
f 3/4/2 4/3/2 6/5/2 5/6/2
f 5/6/3 6/5/3 8/7/3 7/8/3
f 7/8/4 8/7/4 10/9/4 9/10/4
f 9/10/5 10/9/5 12/11/5 11/12/5
f 4/13/6 2/14/6 14/15/6 12/16/6 10/17/6 8/18/6 6/19/6
f 11/12/7 12/11/7 14/20/7 13/21/7
f 13/21/8 14/20/8 2/22/8 1/23/8
f 1/24/9 3/25/9 5/26/9 7/27/9 9/28/9 11/29/9 13/30/9
o Icosphere
v 0.024916 2.381962 -0.017249
v 1.521307 3.524210 1.248440
v -0.470007 3.459436 1.839610
v -1.923917 3.480179 -0.120616
v -0.669737 3.424699 -1.823366
v 1.379686 3.606434 -1.023957
v 0.488302 5.206326 1.720057
v -1.499362 5.330585 1.062518
v -1.450916 5.435468 -1.042650
v 0.564127 5.313541 -1.772016
v 1.877956 5.304293 0.181965
v 0.013372 6.438879 0.005232
vt 0.818181 0.000000
vt 0.727272 0.157461
vt 0.909090 0.157461
vt 0.636363 0.000000
vt 0.545454 0.157461
vt 0.090909 0.000000
vt 0.000000 0.157461
vt 0.181818 0.157461
vt 0.272727 0.000000
vt 0.363636 0.157461
vt 0.454545 0.000000
vt 0.636363 0.314921
vt 0.818181 0.314921
vt 0.090909 0.314921
vt 0.272727 0.314921
vt 0.454545 0.314921
vt 1.000000 0.314921
vt 0.727272 0.472382
vt 0.909090 0.472382
vt 0.181818 0.472382
vt 0.363636 0.472382
vt 0.545454 0.472382
vn 0.1841 -0.8280 0.5296
vn 0.6409 -0.7647 -0.0676
vn -0.4748 -0.8102 0.3436
vn -0.4547 -0.8358 -0.3077
vn 0.2871 -0.7776 -0.5594
vn 0.9694 -0.2355 -0.0689
vn 0.2861 -0.0917 0.9538
vn -0.7892 -0.1919 0.5833
vn -0.8037 -0.0834 -0.5892
vn 0.3714 -0.2181 -0.9025
vn 0.7101 0.2517 0.6576
vn -0.2934 0.2245 0.9293
vn -0.9731 0.2302 -0.0109
vn -0.3185 0.2330 -0.9188
vn 0.8207 0.1506 -0.5511
vn 0.4350 0.7839 0.4430
vn -0.1510 0.7824 0.6042
vn -0.5783 0.8154 0.0273
vn -0.1544 0.8124 -0.5623
vn 0.5121 0.7885 -0.3406
usemtl Material.002
s off
f 15/31/10 16/32/10 17/33/10
f 16/32/11 15/34/11 20/35/11
f 15/36/12 17/37/12 18/38/12
f 15/39/13 18/38/13 19/40/13
f 15/41/14 19/40/14 20/35/14
f 16/32/15 20/35/15 25/42/15
f 17/33/16 16/32/16 21/43/16
f 18/38/17 17/37/17 22/44/17
f 19/40/18 18/38/18 23/45/18
f 20/35/19 19/40/19 24/46/19
f 16/32/20 25/42/20 21/43/20
f 17/33/21 21/43/21 22/47/21
f 18/38/22 22/44/22 23/45/22
f 19/40/23 23/45/23 24/46/23
f 20/35/24 24/46/24 25/42/24
f 21/43/25 25/42/25 26/48/25
f 22/47/26 21/43/26 26/49/26
f 23/45/27 22/44/27 26/50/27
f 24/46/28 23/45/28 26/51/28
f 25/42/29 24/46/29 26/52/29
