# Blender v2.90.0 OBJ File: ''
# www.blender.org
mtllib Map.mtl
o Plane
v -48.000000 0.000000 48.000000
v 48.000000 0.000000 48.000000
v -48.000000 0.000000 -48.000000
v 48.000000 0.000000 -48.000000
v -48.000000 0.000000 -39.272728
v -48.000000 0.000000 -30.545454
v -48.000000 0.000000 -21.818180
v -48.015285 -0.992186 -13.095286
v -48.144928 -1.734785 -4.354492
v -48.204021 -1.748241 4.393305
v -48.000000 -0.005595 13.090912
v -48.107552 -0.711754 21.838373
v -48.000000 0.000000 30.545456
v -48.000000 0.000000 39.272732
v -39.272728 0.000000 48.000000
v -30.545454 0.000000 48.000000
v -21.818180 0.000000 48.000000
v -13.090907 0.000000 48.000000
v -4.363635 -0.021035 48.000000
v 4.363638 -0.021035 48.000000
v 13.090912 0.000000 48.000000
v 21.818184 0.000000 48.000000
v 30.545456 0.000000 48.000000
v 39.272732 0.000000 48.000000
v 48.000000 0.000000 39.272728
v 48.000000 0.000000 30.545454
v 48.107552 -0.711754 21.838369
v 48.000000 -0.005595 13.090907
v 48.204021 -1.748240 4.393301
v 48.144928 -1.734785 -4.354496
v 48.015285 -0.992186 -13.095291
v 48.000000 0.000000 -21.818184
v 48.000000 0.000000 -30.545456
v 48.000000 0.000000 -39.272732
v 39.272728 0.000000 -48.000000
v 30.545454 0.000000 -48.000000
v 21.818180 0.000000 -48.000000
v 13.090907 -0.498656 -48.000000
v 4.363635 -0.305650 -48.000000
v -4.363638 -0.305650 -48.000000
v -13.090912 -0.498656 -48.000000
v -21.818184 0.000000 -48.000000
v -30.545456 0.000000 -48.000000
v -39.272732 0.000000 -48.000000
v -39.272728 0.000000 39.272728
v -39.272728 -1.064841 30.545454
v -39.393593 -4.121620 21.809738
v -39.259838 -3.448131 13.084505
v -39.186008 -3.914665 4.398212
v -39.154015 -4.518507 -4.447217
v -39.295773 -2.559915 -13.105811
v -39.272728 -1.802073 -21.818184
v -39.342232 -1.808260 -30.594360
v -39.272732 0.000000 -39.272732
v -30.614115 -1.317858 39.372524
v -30.553532 -4.471253 30.547791
v -30.103260 -3.732023 21.483583
v -30.415375 -1.041295 13.074170
v -30.395237 -1.079197 4.362390
v -30.400486 -1.090451 -4.372132
v -30.391769 -1.354439 -13.023229
v -30.475782 -4.204016 -21.652218
v -30.545454 -2.659247 -30.545456
v -30.574930 -0.446891 -39.324368
v -21.827044 -3.405247 39.316097
v -21.472906 -4.702384 30.083708
v -21.818180 0.000000 21.818180
v -21.818180 0.000000 13.090907
v -21.818180 0.000000 4.363635
v -21.818180 0.000000 -4.363638
v -21.818182 0.000000 -13.090912
v -21.818182 -0.010728 -21.818184
v -21.791349 -3.857071 -30.532557
v -21.859533 -1.491105 -39.363987
v -13.053344 -4.666699 39.290054
v -13.090907 -0.000374 30.545454
v -13.090907 0.000000 21.818180
v -13.090907 0.000000 13.090907
v -13.090907 0.000000 4.363635
v -13.090909 0.267630 -4.363638
v -13.090909 0.000000 -13.090912
v -13.090909 0.000000 -21.818184
v -13.073603 -2.619599 -30.480970
v -13.090912 -2.409092 -39.272732
v -4.308491 -3.502779 39.281845
v -4.363636 0.000000 30.545454
v -4.363636 0.000000 21.818180
v -4.363636 0.000000 13.090907
v -4.363636 0.401476 4.363635
v -4.363637 0.721198 -4.372839
v -4.359203 0.869893 -13.095345
v -4.363637 0.000000 -21.818184
v -4.363638 -1.495159 -30.545456
v -4.363638 -2.688388 -39.272732
v 4.308494 -3.502779 39.281845
v 4.363637 0.000000 30.545454
v 4.363637 0.000000 21.818180
v 4.365254 0.211061 13.094142
v 4.367918 1.072563 4.369615
v 4.363636 0.000000 -4.363638
v 4.362561 0.424345 -13.091988
v 4.363636 0.000000 -21.818184
v 4.363635 -1.495159 -30.545456
v 4.363635 -2.688388 -39.272732
v 13.053348 -4.666700 39.290054
v 13.090912 -0.000374 30.545454
v 13.090912 0.000000 21.818180
v 13.093444 0.155841 13.092811
v 13.090912 0.000000 4.363635
v 13.090912 0.267630 -4.363638
v 13.090675 0.099956 -13.091697
v 13.090909 0.000000 -21.818184
v 13.073601 -2.619600 -30.480970
v 13.090909 -2.409093 -39.272732
v 21.827047 -3.405246 39.316097
v 21.472910 -4.702386 30.083708
v 21.818184 0.000000 21.818180
v 21.818184 0.000000 13.090907
v 21.818184 0.000000 4.363635
v 21.818182 0.000000 -4.363638
v 21.818182 0.000000 -13.090912
v 21.818182 -0.010728 -21.818184
v 21.791349 -3.857071 -30.532557
v 21.859529 -1.491105 -39.363987
v 30.614119 -1.317857 39.372524
v 30.553534 -4.471253 30.547791
v 30.103262 -3.732024 21.483583
v 30.415379 -1.041296 13.074170
v 30.395239 -1.079198 4.362390
v 30.400488 -1.090451 -4.372132
v 30.391773 -1.354440 -13.023229
v 30.475784 -4.204017 -21.652218
v 30.545456 -2.659247 -30.545456
v 30.574930 -0.446891 -39.324368
v 39.272732 0.000000 39.272728
v 39.272732 -1.064840 30.545454
v 39.393597 -4.121619 21.809738
v 39.259838 -3.448131 13.084505
v 39.186012 -3.914666 4.398212
v 39.154018 -4.518507 -4.447217
v 39.295776 -2.559913 -13.105811
v 39.272732 -1.802074 -21.818184
v 39.342236 -1.808259 -30.594360
v 39.272732 0.000000 -39.272732
vt 0.909091 0.909091
vt 1.000000 0.909091
vt 1.000000 1.000000
vt 0.909091 1.000000
vt 0.000000 0.909091
vt 0.090909 0.909091
vt 0.090909 1.000000
vt 0.000000 1.000000
vt 0.181818 0.909091
vt 0.181818 1.000000
vt 0.272727 0.909091
vt 0.272727 1.000000
vt 0.363636 0.909091
vt 0.363636 1.000000
vt 0.454545 0.909091
vt 0.454545 1.000000
vt 0.545455 0.909091
vt 0.545455 1.000000
vt 0.636364 0.909091
vt 0.636364 1.000000
vt 0.727273 0.909091
vt 0.727273 1.000000
vt 0.818182 0.909091
vt 0.818182 1.000000
vt 0.000000 0.000000
vt 0.090909 0.000000
vt 0.090909 0.090909
vt 0.000000 0.090909
vt 0.090909 0.181818
vt 0.000000 0.181818
vt 0.090909 0.272727
vt 0.000000 0.272727
vt 0.090909 0.363636
vt 0.000000 0.363636
vt 0.090909 0.454545
vt 0.000000 0.454545
vt 0.090909 0.545455
vt 0.000000 0.545455
vt 0.090909 0.636364
vt 0.000000 0.636364
vt 0.090909 0.727273
vt 0.000000 0.727273
vt 0.090909 0.818182
vt 0.000000 0.818182
vt 0.181818 0.000000
vt 0.181818 0.090909
vt 0.181818 0.181818
vt 0.181818 0.272727
vt 0.181818 0.363636
vt 0.181818 0.454545
vt 0.181818 0.545455
vt 0.181818 0.636364
vt 0.181818 0.727273
vt 0.181818 0.818182
vt 0.272727 0.000000
vt 0.272727 0.090909
vt 0.272727 0.181818
vt 0.272727 0.272727
vt 0.272727 0.363636
vt 0.272727 0.454545
vt 0.272727 0.545455
vt 0.272727 0.636364
vt 0.272727 0.727273
vt 0.272727 0.818182
vt 0.363636 0.000000
vt 0.363636 0.090909
vt 0.363636 0.181818
vt 0.363636 0.272727
vt 0.363636 0.363636
vt 0.363636 0.454545
vt 0.363636 0.545455
vt 0.363636 0.636364
vt 0.363636 0.727273
vt 0.363636 0.818182
vt 0.454545 0.000000
vt 0.454545 0.090909
vt 0.454545 0.181818
vt 0.454545 0.272727
vt 0.454545 0.363636
vt 0.454545 0.454545
vt 0.454545 0.545455
vt 0.454545 0.636364
vt 0.454545 0.727273
vt 0.454545 0.818182
vt 0.545455 0.000000
vt 0.545455 0.090909
vt 0.545455 0.181818
vt 0.545455 0.272727
vt 0.545455 0.363636
vt 0.545455 0.454545
vt 0.545455 0.545455
vt 0.545455 0.636364
vt 0.545455 0.727273
vt 0.545455 0.818182
vt 0.636364 0.000000
vt 0.636364 0.090909
vt 0.636364 0.181818
vt 0.636364 0.272727
vt 0.636364 0.363636
vt 0.636364 0.454545
vt 0.636364 0.545455
vt 0.636364 0.636364
vt 0.636364 0.727273
vt 0.636364 0.818182
vt 0.727273 0.000000
vt 0.727273 0.090909
vt 0.727273 0.181818
vt 0.727273 0.272727
vt 0.727273 0.363636
vt 0.727273 0.454545
vt 0.727273 0.545455
vt 0.727273 0.636364
vt 0.727273 0.727273
vt 0.727273 0.818182
vt 0.818182 0.000000
vt 0.818182 0.090909
vt 0.818182 0.181818
vt 0.818182 0.272727
vt 0.818182 0.363636
vt 0.818182 0.454545
vt 0.818182 0.545455
vt 0.818182 0.636364
vt 0.818182 0.727273
vt 0.818182 0.818182
vt 0.909091 0.000000
vt 0.909091 0.090909
vt 0.909091 0.181818
vt 0.909091 0.272727
vt 0.909091 0.363636
vt 0.909091 0.454545
vt 0.909091 0.545455
vt 0.909091 0.636364
vt 0.909091 0.727273
vt 0.909091 0.818182
vt 1.000000 0.000000
vt 1.000000 0.090909
vt 1.000000 0.181818
vt 1.000000 0.272727
vt 1.000000 0.363636
vt 1.000000 0.454545
vt 1.000000 0.545455
vt 1.000000 0.636364
vt 1.000000 0.727273
vt 1.000000 0.818182
vn 0.0000 1.0000 0.0000
vn 0.0257 0.9993 0.0257
vn 0.0596 0.9920 0.1113
vn 0.0782 0.9783 0.1918
vn 0.0048 0.9710 0.2388
vn -0.0000 0.9647 0.2634
vn -0.0048 0.9710 0.2388
vn -0.0782 0.9783 0.1918
vn -0.0596 0.9920 0.1113
vn -0.0257 0.9993 0.0257
vn 0.0608 0.9963 -0.0608
vn 0.2428 0.9475 -0.2079
vn 0.3645 0.9279 0.0783
vn 0.2989 0.9464 -0.1225
vn 0.2648 0.9638 -0.0310
vn 0.2368 0.9601 0.1489
vn 0.1888 0.9771 0.0985
vn 0.2033 0.9791 -0.0012
vn 0.1032 0.9893 0.1032
vn 0.0758 0.9942 -0.0758
vn 0.2568 0.9399 -0.2250
vn 0.1617 0.9790 -0.1245
vn -0.1461 0.9705 0.1921
vn -0.2849 0.9581 -0.0293
vn -0.3360 0.9413 -0.0334
vn -0.2534 0.9626 0.0962
vn 0.0686 0.9904 -0.1197
vn 0.1802 0.9800 0.0839
vn 0.0721 0.9719 0.2240
vn 0.1134 0.9584 -0.2620
vn 0.1183 0.9647 -0.2351
vn -0.1868 0.9376 0.2933
vn -0.2718 0.9499 0.1541
vn -0.1225 0.9925 -0.0023
vn -0.1254 0.9921 -0.0006
vn -0.1411 0.9899 -0.0151
vn -0.3047 0.9400 -0.1534
vn -0.1693 0.9773 -0.1273
vn 0.1237 0.9606 0.2490
vn 0.0646 0.9052 -0.4200
vn -0.1978 0.9641 0.1772
vn -0.2623 0.9286 0.2623
vn -0.0153 0.9998 0.0153
vn -0.0153 0.9998 -0.0153
vn -0.0006 1.0000 -0.0006
vn -0.0659 0.9351 -0.3481
vn -0.0193 0.9893 0.1447
vn -0.0593 0.9042 -0.4231
vn -0.0601 0.9042 0.4229
vn -0.0230 0.9995 0.0230
vn -0.0489 0.9982 0.0336
vn -0.0756 0.9971 -0.0068
vn -0.0497 0.9975 -0.0497
vn -0.0635 0.9712 -0.2299
vn -0.0485 0.9973 -0.0559
vn 0.0000 0.9287 -0.3709
vn 0.0000 0.9282 0.3721
vn -0.0121 0.9999 0.0121
vn -0.0504 0.9961 0.0721
vn 0.0029 0.9991 -0.0431
vn 0.0667 0.9972 0.0328
vn 0.0255 0.9969 -0.0740
vn 0.0000 0.9856 -0.1689
vn -0.0000 0.9908 -0.1355
vn 0.0593 0.9042 -0.4231
vn 0.0601 0.9042 0.4229
vn 0.0032 0.9998 0.0210
vn 0.0645 0.9971 0.0403
vn 0.0460 0.9979 -0.0460
vn 0.0033 0.9999 0.0147
vn 0.0186 0.9994 -0.0300
vn 0.0635 0.9712 -0.2299
vn 0.0485 0.9973 -0.0559
vn -0.0646 0.9052 -0.4200
vn 0.1978 0.9641 0.1772
vn 0.2623 0.9286 0.2623
vn 0.0089 0.9999 0.0089
vn 0.0089 0.9999 -0.0089
vn 0.0153 0.9998 0.0153
vn 0.0211 0.9997 -0.0096
vn 0.0063 1.0000 -0.0063
vn 0.0659 0.9351 -0.3481
vn 0.0193 0.9893 0.1447
vn -0.1134 0.9584 -0.2620
vn -0.1183 0.9647 -0.2351
vn 0.1868 0.9376 0.2933
vn 0.2718 0.9499 0.1541
vn 0.1225 0.9925 -0.0023
vn 0.1254 0.9921 -0.0006
vn 0.1411 0.9899 -0.0151
vn 0.3047 0.9400 -0.1534
vn 0.1693 0.9773 -0.1273
vn -0.1237 0.9606 0.2490
vn -0.0758 0.9942 -0.0758
vn -0.2568 0.9399 -0.2250
vn -0.1617 0.9790 -0.1245
vn 0.1461 0.9705 0.1921
vn 0.2849 0.9581 -0.0293
vn 0.3360 0.9413 -0.0334
vn 0.2534 0.9626 0.0962
vn -0.0686 0.9904 -0.1197
vn -0.1802 0.9800 0.0839
vn -0.0721 0.9719 0.2240
vn -0.0608 0.9963 -0.0608
vn -0.2428 0.9475 -0.2079
vn -0.3645 0.9279 0.0783
vn -0.2989 0.9464 -0.1225
vn -0.2648 0.9638 -0.0310
vn -0.2368 0.9601 0.1489
vn -0.1888 0.9771 0.0985
vn -0.2033 0.9791 -0.0012
vn -0.1032 0.9893 0.1032
usemtl None
s off
f 144/1/1 34/2/1 4/3/1 35/4/1
f 5/5/1 54/6/1 44/7/1 3/8/1
f 54/6/2 64/9/2 43/10/2 44/7/2
f 64/9/3 74/11/3 42/12/3 43/10/3
f 74/11/4 84/13/4 41/14/4 42/12/4
f 84/13/5 94/15/5 40/16/5 41/14/5
f 94/15/6 104/17/6 39/18/6 40/16/6
f 104/17/7 114/19/7 38/20/7 39/18/7
f 114/19/8 124/21/8 37/22/8 38/20/8
f 124/21/9 134/23/9 36/24/9 37/22/9
f 134/23/10 144/1/10 35/4/10 36/24/10
f 1/25/1 15/26/1 45/27/1 14/28/1
f 14/28/11 45/27/11 46/29/11 13/30/11
f 13/30/12 46/29/12 47/31/12 12/32/12
f 12/32/13 47/31/13 48/33/13 11/34/13
f 11/34/14 48/33/14 49/35/14 10/36/14
f 10/36/15 49/35/15 50/37/15 9/38/15
f 9/38/16 50/37/16 51/39/16 8/40/16
f 8/40/17 51/39/17 52/41/17 7/42/17
f 7/42/18 52/41/18 53/43/18 6/44/18
f 6/44/19 53/43/19 54/6/19 5/5/19
f 15/26/20 16/45/20 55/46/20 45/27/20
f 45/27/21 55/46/21 56/47/21 46/29/21
f 46/29/22 56/47/22 57/48/22 47/31/22
f 47/31/23 57/48/23 58/49/23 48/33/23
f 48/33/24 58/49/24 59/50/24 49/35/24
f 49/35/25 59/50/25 60/51/25 50/37/25
f 50/37/26 60/51/26 61/52/26 51/39/26
f 51/39/27 61/52/27 62/53/27 52/41/27
f 52/41/28 62/53/28 63/54/28 53/43/28
f 53/43/29 63/54/29 64/9/29 54/6/29
f 16/45/30 17/55/30 65/56/30 55/46/30
f 55/46/31 65/56/31 66/57/31 56/47/31
f 56/47/32 66/57/32 67/58/32 57/48/32
f 57/48/33 67/58/33 68/59/33 58/49/33
f 58/49/34 68/59/34 69/60/34 59/50/34
f 59/50/35 69/60/35 70/61/35 60/51/35
f 60/51/36 70/61/36 71/62/36 61/52/36
f 61/52/37 71/62/37 72/63/37 62/53/37
f 62/53/38 72/63/38 73/64/38 63/54/38
f 63/54/39 73/64/39 74/11/39 64/9/39
f 17/55/40 18/65/40 75/66/40 65/56/40
f 65/56/41 75/66/41 76/67/41 66/57/41
f 66/57/42 76/67/42 77/68/42 67/58/42
f 67/58/1 77/68/1 78/69/1 68/59/1
f 68/59/1 78/69/1 79/70/1 69/60/1
f 69/60/43 79/70/43 80/71/43 70/61/43
f 70/61/44 80/71/44 81/72/44 71/62/44
f 71/62/45 81/72/45 82/73/45 72/63/45
f 72/63/46 82/73/46 83/74/46 73/64/46
f 73/64/47 83/74/47 84/13/47 74/11/47
f 18/65/48 19/75/48 85/76/48 75/66/48
f 75/66/49 85/76/49 86/77/49 76/67/49
f 76/67/1 86/77/1 87/78/1 77/68/1
f 77/68/1 87/78/1 88/79/1 78/69/1
f 78/69/50 88/79/50 89/80/50 79/70/50
f 79/70/51 89/80/51 90/81/51 80/71/51
f 80/71/52 90/81/52 91/82/52 81/72/52
f 81/72/53 91/82/53 92/83/53 82/73/53
f 82/73/54 92/83/54 93/84/54 83/74/54
f 83/74/55 93/84/55 94/15/55 84/13/55
f 19/75/56 20/85/56 95/86/56 85/76/56
f 85/76/57 95/86/57 96/87/57 86/77/57
f 86/77/1 96/87/1 97/88/1 87/78/1
f 87/78/58 97/88/58 98/89/58 88/79/58
f 88/79/59 98/89/59 99/90/59 89/80/59
f 89/80/60 99/90/60 100/91/60 90/81/60
f 90/81/61 100/91/61 101/92/61 91/82/61
f 91/82/62 101/92/62 102/93/62 92/83/62
f 92/83/63 102/93/63 103/94/63 93/84/63
f 93/84/64 103/94/64 104/17/64 94/15/64
f 20/85/65 21/95/65 105/96/65 95/86/65
f 95/86/66 105/96/66 106/97/66 96/87/66
f 96/87/1 106/97/1 107/98/1 97/88/1
f 97/88/67 107/98/67 108/99/67 98/89/67
f 98/89/68 108/99/68 109/100/68 99/90/68
f 99/90/69 109/100/69 110/101/69 100/91/69
f 100/91/70 110/101/70 111/102/70 101/92/70
f 101/92/71 111/102/71 112/103/71 102/93/71
f 102/93/72 112/103/72 113/104/72 103/94/72
f 103/94/73 113/104/73 114/19/73 104/17/73
f 21/95/74 22/105/74 115/106/74 105/96/74
f 105/96/75 115/106/75 116/107/75 106/97/75
f 106/97/76 116/107/76 117/108/76 107/98/76
f 107/98/77 117/108/77 118/109/77 108/99/77
f 108/99/78 118/109/78 119/110/78 109/100/78
f 109/100/79 119/110/79 120/111/79 110/101/79
f 110/101/80 120/111/80 121/112/80 111/102/80
f 111/102/81 121/112/81 122/113/81 112/103/81
f 112/103/82 122/113/82 123/114/82 113/104/82
f 113/104/83 123/114/83 124/21/83 114/19/83
f 22/105/84 23/115/84 125/116/84 115/106/84
f 115/106/85 125/116/85 126/117/85 116/107/85
f 116/107/86 126/117/86 127/118/86 117/108/86
f 117/108/87 127/118/87 128/119/87 118/109/87
f 118/109/88 128/119/88 129/120/88 119/110/88
f 119/110/89 129/120/89 130/121/89 120/111/89
f 120/111/90 130/121/90 131/122/90 121/112/90
f 121/112/91 131/122/91 132/123/91 122/113/91
f 122/113/92 132/123/92 133/124/92 123/114/92
f 123/114/93 133/124/93 134/23/93 124/21/93
f 23/115/94 24/125/94 135/126/94 125/116/94
f 125/116/95 135/126/95 136/127/95 126/117/95
f 126/117/96 136/127/96 137/128/96 127/118/96
f 127/118/97 137/128/97 138/129/97 128/119/97
f 128/119/98 138/129/98 139/130/98 129/120/98
f 129/120/99 139/130/99 140/131/99 130/121/99
f 130/121/100 140/131/100 141/132/100 131/122/100
f 131/122/101 141/132/101 142/133/101 132/123/101
f 132/123/102 142/133/102 143/134/102 133/124/102
f 133/124/103 143/134/103 144/1/103 134/23/103
f 24/125/1 2/135/1 25/136/1 135/126/1
f 135/126/104 25/136/104 26/137/104 136/127/104
f 136/127/105 26/137/105 27/138/105 137/128/105
f 137/128/106 27/138/106 28/139/106 138/129/106
f 138/129/107 28/139/107 29/140/107 139/130/107
f 139/130/108 29/140/108 30/141/108 140/131/108
f 140/131/109 30/141/109 31/142/109 141/132/109
f 141/132/110 31/142/110 32/143/110 142/133/110
f 142/133/111 32/143/111 33/144/111 143/134/111
f 143/134/112 33/144/112 34/2/112 144/1/112
