# Blender v2.90.0 OBJ File: 'chest.blend'
# www.blender.org
mtllib chest.mtl
o Cylinder_Cylinder.003
v -0.012061 0.248404 0.300000
v 0.175877 0.316808 0.300000
v -0.200000 0.180000 0.300000
v -0.204314 0.303532 0.300000
v -0.135194 0.406006 0.300000
v -0.019041 0.448282 0.300000
v 0.099777 0.414212 0.300000
v 0.175877 0.316808 0.270000
v -0.200000 0.180000 0.270000
v -0.204314 0.303532 0.270000
v -0.135194 0.406006 0.270000
v -0.019041 0.448282 0.270000
v 0.099777 0.414212 0.270000
v 0.156852 0.341159 0.300000
v 0.156852 0.341159 0.270000
v 0.200000 0.162893 0.270000
v -0.200000 0.163120 0.270000
v -0.200000 -0.162000 0.270000
v 0.200000 -0.162000 0.270000
v 0.180000 0.162837 0.300000
v 0.180000 0.180000 0.270000
v 0.180000 -0.180000 0.270000
v 0.180000 -0.162000 0.300000
v -0.181000 0.162837 0.300000
v -0.181000 -0.180000 0.270000
v -0.181000 -0.162000 0.300000
v -0.181000 0.180000 0.270000
v -0.012061 0.248404 -0.300000
v 0.175877 0.316808 -0.300000
v -0.200000 0.180000 -0.300000
v -0.204314 0.303532 -0.300000
v -0.135194 0.406006 -0.300000
v -0.019041 0.448282 -0.300000
v 0.099777 0.414212 -0.300000
v 0.175877 0.316808 0.000000
v -0.200000 0.180000 -0.000000
v -0.204314 0.303532 -0.000000
v -0.135194 0.406006 -0.000000
v -0.019041 0.448282 -0.000000
v 0.099777 0.414212 0.000000
v -0.200000 0.163120 -0.000000
v 0.175877 0.316808 -0.270000
v -0.200000 0.180000 -0.270000
v -0.204314 0.303532 -0.270000
v -0.135194 0.406006 -0.270000
v -0.019041 0.448282 -0.270000
v 0.099777 0.414212 -0.270000
v 0.156852 0.341159 -0.300000
v 0.156852 0.341159 0.000000
v 0.156852 0.341159 -0.270000
v 0.200000 0.162893 -0.270000
v -0.200000 0.163120 -0.270000
v -0.200000 -0.162000 -0.000000
v -0.200000 -0.162000 -0.270000
v 0.200000 -0.162000 -0.270000
v -0.181000 0.162790 -0.300000
v 0.180000 0.180000 0.000000
v 0.180000 -0.180000 0.000000
v 0.180000 0.180000 -0.270000
v 0.180000 -0.180000 -0.270000
v -0.181000 -0.162000 -0.300000
v 0.180000 0.162790 -0.300000
v -0.181000 -0.180000 -0.000000
v -0.181000 -0.180000 -0.270000
v 0.180000 -0.162000 -0.300000
v -0.181000 0.180000 -0.000000
v -0.181000 0.180000 -0.270000
vt 0.250000 0.250000
vt 0.108932 0.055836
vt 0.250000 0.010000
vt 0.021746 0.175836
vt 0.021746 0.324164
vt 0.108932 0.444164
vt 0.250000 0.490000
vt 0.214733 0.478541
vt 0.500000 0.750000
vt 0.500000 0.975000
vt 0.400000 0.975000
vt 0.400000 0.750000
vt 0.400000 0.975000
vt 0.500000 0.975000
vt 0.300000 0.750000
vt 0.300000 0.975000
vt 0.200000 0.975000
vt 0.200000 0.750000
vt 0.200000 0.975000
vt 0.300000 0.975000
vt -0.000000 0.750000
vt -0.000000 0.975000
vt -0.000000 0.975000
vt 0.863125 0.625000
vt 0.863125 0.737500
vt 0.637500 0.737500
vt 0.637500 0.625000
vt 0.637500 0.737500
vt 0.863125 0.737500
vt 0.100000 0.975000
vt 0.100000 0.750000
vt 0.100000 0.975000
vt 0.025000 0.975000
vt 0.025000 0.750000
vt 0.025000 0.975000
vt 0.387500 0.012500
vt 0.625000 0.012500
vt 0.625000 0.125000
vt 0.625000 0.012500
vt 0.387500 0.012500
vt 0.387500 0.125000
vt 0.136875 0.625000
vt 0.362500 0.625000
vt 0.362500 0.737500
vt 0.136875 0.737500
vt 0.387500 0.762500
vt 0.625000 0.762500
vt 0.625000 0.988125
vt 0.387500 0.988125
vt 0.250000 0.250000
vt 0.250000 0.010000
vt 0.108932 0.055836
vt 0.021746 0.175836
vt 0.021746 0.324164
vt 0.108932 0.444164
vt 0.214733 0.478541
vt 0.250000 0.490000
vt 0.136875 0.737500
vt 0.362500 0.737500
vt 0.387500 0.762500
vt 0.625000 0.762500
vt 0.625000 0.988125
vt 0.387500 0.988125
vt 0.000000 0.000000
vt 0.000000 0.000000
vt 0.000000 0.000000
vt 0.000000 0.000000
vn 0.0000 0.0000 1.0000
vn -0.9994 -0.0349 -0.0000
vn -0.3420 0.9397 -0.0000
vn -0.8290 0.5592 -0.0000
vn 0.3420 -0.9397 0.0000
vn 0.0000 1.0000 0.0000
vn 0.2756 0.9613 -0.0000
vn 0.7880 0.6157 0.0000
vn -1.0000 -0.0000 -0.0000
vn 0.0000 -1.0000 0.0000
vn 0.0000 0.0000 -1.0000
vn 1.0000 0.0000 0.0000
usemtl None
s off
f 1/1/1 4/2/1 3/3/1
f 1/1/1 5/4/1 4/2/1
f 1/1/1 6/5/1 5/4/1
f 1/1/1 7/6/1 6/5/1
f 1/1/1 2/7/1 14/8/1 7/6/1
f 36/9/2 9/10/2 10/11/2 37/12/2 44/13/2 43/14/2
f 38/15/3 11/16/3 12/17/3 39/18/3 46/19/3 45/20/3
f 37/12/4 10/11/4 11/16/4 38/15/4 45/20/4 44/13/4
f 35/21/5 8/22/5 9/10/5 36/9/5 43/14/5 42/23/5
f 66/24/6 27/25/6 21/26/6 57/27/6 59/28/6 67/29/6
f 39/18/7 12/17/7 13/30/7 40/31/7 47/32/7 46/19/7
f 40/31/8 13/30/8 15/33/8 49/34/8 50/35/8 47/32/8
f 18/36/9 17/37/9 41/38/9 52/39/9 54/40/9 53/41/9
f 63/42/10 58/43/10 22/44/10 25/45/10
f 23/46/1 20/47/1 24/48/1 26/49/1
f 28/50/11 30/51/11 31/52/11
f 28/50/11 31/52/11 32/53/11
f 28/50/11 32/53/11 33/54/11
f 28/50/11 33/54/11 34/55/11
f 28/50/11 34/55/11 48/56/11 29/57/11
f 63/42/10 64/58/10 60/59/10 58/43/10
f 61/60/11 56/61/11 62/62/11 65/63/11
f 19/64/12 55/65/12 51/66/12 16/67/12
f 21/26/10 57/27/10 59/28/10
f 27/25/6 67/29/6 66/24/6
o Cylinder.001_Cylinder.004
v 0.175877 0.316808 0.300000
v -0.200000 0.180000 0.300000
v -0.204314 0.303532 0.300000
v -0.135194 0.406006 0.300000
v -0.019041 0.448282 0.300000
v 0.099777 0.414212 0.300000
v -0.200000 -0.180000 0.300000
v -0.200000 0.180000 0.300000
v 0.200000 -0.180000 0.300000
v 0.200000 0.180000 0.300000
v 0.175877 0.316808 0.270000
v -0.200000 0.180000 0.270000
v -0.204314 0.303532 0.270000
v -0.135194 0.406006 0.270000
v -0.019041 0.448282 0.270000
v 0.099777 0.414212 0.270000
v 0.156852 0.341159 0.300000
v 0.156852 0.341159 0.270000
v -0.200000 -0.180000 0.270000
v 0.200000 0.180000 0.270000
v -0.200000 0.180000 0.270000
v 0.200000 -0.180000 0.270000
v -0.200000 -0.162000 0.300000
v 0.200000 -0.162000 0.300000
v -0.200000 -0.162000 0.270000
v 0.200000 -0.162000 0.270000
v 0.180000 -0.180000 0.300000
v 0.180000 0.180000 0.300000
v 0.180000 0.180000 0.270000
v 0.180000 -0.180000 0.270000
v 0.180000 -0.162000 0.300000
v -0.181000 0.180000 0.300000
v -0.181000 -0.180000 0.270000
v -0.181000 -0.162000 0.300000
v -0.181000 -0.180000 0.300000
v -0.181000 0.180000 0.270000
v 0.175877 0.316808 -0.300000
v -0.200000 0.180000 -0.300000
v -0.204314 0.303532 -0.300000
v -0.135194 0.406006 -0.300000
v -0.019041 0.448282 -0.300000
v 0.099777 0.414212 -0.300000
v -0.200000 -0.180000 -0.300000
v -0.200000 0.180000 -0.300000
v 0.200000 -0.180000 -0.300000
v 0.200000 0.180000 -0.300000
v 0.175877 0.316808 0.000000
v -0.200000 -0.180000 -0.000000
v -0.200000 0.180000 -0.000000
v 0.200000 -0.180000 0.000000
v 0.200000 0.180000 0.000000
v 0.175877 0.316808 -0.270000
v -0.200000 0.180000 -0.270000
v -0.204314 0.303532 -0.270000
v -0.135194 0.406006 -0.270000
v -0.019041 0.448282 -0.270000
v 0.099777 0.414212 -0.270000
v 0.156852 0.341159 -0.300000
v 0.156852 0.341159 0.000000
v 0.156852 0.341159 -0.270000
v -0.200000 -0.180000 -0.270000
v 0.200000 0.180000 -0.270000
v -0.200000 0.180000 -0.270000
v 0.200000 -0.180000 -0.270000
v -0.200000 -0.162000 -0.300000
v 0.200000 -0.162000 -0.300000
v 0.200000 -0.162000 0.000000
v -0.200000 -0.162000 -0.000000
v -0.200000 -0.162000 -0.270000
v 0.200000 -0.162000 -0.270000
v 0.180000 -0.180000 -0.300000
v 0.180000 0.180000 -0.300000
v 0.180000 0.180000 0.000000
v 0.180000 -0.180000 0.000000
v 0.180000 0.180000 -0.270000
v 0.180000 -0.180000 -0.270000
v 0.180000 -0.162000 -0.300000
v -0.181000 0.180000 -0.300000
v -0.181000 -0.180000 -0.000000
v -0.181000 -0.180000 -0.270000
v -0.181000 -0.162000 -0.300000
v -0.181000 -0.180000 -0.300000
v -0.181000 0.180000 -0.000000
v -0.181000 0.180000 -0.270000
v 0.200000 0.162900 0.300000
v 0.200000 0.162900 0.270000
v 0.180000 0.162900 0.300000
v 0.200000 0.162900 -0.300000
v 0.200000 0.162900 -0.270000
v 0.180000 0.162900 -0.300000
v -0.200000 0.162900 -0.300000
v -0.200000 0.162900 -0.270000
v -0.181000 0.162900 -0.300000
v 0.200000 -0.162000 -0.135000
v -0.200000 0.162900 0.300000
v -0.200000 0.162900 0.270000
v -0.181000 0.162900 0.300000
v 0.157083 0.309968 0.300000
v 0.157083 0.309968 0.270000
v 0.157083 0.309968 -0.300000
v 0.157083 0.309968 -0.270000
vt 0.025000 0.975000
vt 0.025000 1.000000
vt 0.500000 1.000000
vt 0.500000 0.975000
vt 0.400000 1.000000
vt 0.400000 0.975000
vt 0.300000 1.000000
vt 0.300000 0.975000
vt 0.200000 1.000000
vt 0.200000 0.975000
vt 0.100000 1.000000
vt 0.100000 0.975000
vt 0.025000 0.975000
vt 0.025000 1.000000
vt -0.000000 1.000000
vt -0.000000 0.975000
vt 0.613125 0.737500
vt 0.625000 0.737500
vt 0.625000 0.750000
vt 0.613125 0.750000
vt 0.613125 0.988125
vt 0.625000 0.988125
vt 0.625000 1.000000
vt 0.613125 1.000000
vt 0.362500 0.737500
vt 0.375000 0.737500
vt 0.375000 0.750000
vt 0.362500 0.750000
vt 0.863125 0.737500
vt 0.875000 0.737500
vt 0.875000 0.750000
vt 0.863125 0.750000
vt 0.387500 0.625000
vt 0.387500 0.737500
vt 0.375000 0.625000
vt 0.375000 0.737500
vt 0.387500 0.737500
vt 0.387500 0.681250
vt 0.025000 0.750000
vt -0.000000 0.750000
vt -0.000000 0.975000
vt 0.025000 0.975000
vt 0.613125 0.000000
vt 0.625000 0.000000
vt 0.625000 0.012500
vt 0.613125 0.012500
vt 0.375000 0.000000
vt 0.387500 0.000000
vt 0.387500 0.012500
vt 0.375000 0.012500
vt 0.362500 0.625000
vt 0.362500 0.737500
vt 0.375000 0.988125
vt 0.387500 0.988125
vt 0.387500 1.000000
vt 0.375000 1.000000
vt 0.387500 0.750000
vt 0.387500 0.762500
vt 0.375000 0.762500
vt 0.875000 0.625000
vt 0.863125 0.625000
vt 0.863125 0.737500
vt 0.875000 0.737500
vt 0.637500 0.737500
vt 0.637500 0.750000
vt 0.136875 0.737500
vt 0.136875 0.750000
vt 0.625000 0.762500
vt 0.613125 0.762500
vt 0.125000 0.737500
vt 0.125000 0.750000
vt 0.387500 0.125000
vt 0.387500 0.012500
vt 0.375000 0.012500
vt 0.375000 0.125000
vt 0.637500 0.625000
vt 0.625000 0.625000
vt 0.625000 0.737500
vt 0.637500 0.737500
vt 0.025000 0.975000
vt 0.500000 0.975000
vt 0.500000 1.000000
vt 0.025000 1.000000
vt 0.400000 0.975000
vt 0.400000 1.000000
vt 0.300000 0.975000
vt 0.300000 1.000000
vt 0.200000 0.975000
vt 0.200000 1.000000
vt 0.100000 0.975000
vt 0.100000 1.000000
vt -0.000000 1.000000
vt 0.025000 1.000000
vt 0.613125 0.737500
vt 0.613125 0.750000
vt 0.625000 0.750000
vt 0.613125 0.988125
vt 0.613125 1.000000
vt 0.625000 1.000000
vt 0.625000 0.988125
vt 0.362500 0.750000
vt 0.375000 0.750000
vt 0.863125 0.750000
vt 0.875000 0.750000
vt 0.613125 0.000000
vt 0.613125 0.012500
vt 0.625000 0.012500
vt 0.625000 0.000000
vt 0.375000 0.000000
vt 0.387500 0.000000
vt 0.375000 0.988125
vt 0.375000 1.000000
vt 0.387500 1.000000
vt 0.387500 0.988125
vt 0.387500 0.750000
vt 0.375000 0.762500
vt 0.387500 0.762500
vt 0.637500 0.750000
vt 0.136875 0.737500
vt 0.136875 0.750000
vt 0.613125 0.762500
vt 0.625000 0.762500
vt 0.125000 0.737500
vt 0.125000 0.750000
vt 0.136875 0.625000
vt 0.125000 0.625000
vn 0.3420 -0.9397 0.0000
vn -0.9994 -0.0349 0.0000
vn -0.8290 0.5592 0.0000
vn -0.3420 0.9397 0.0000
vn 0.2756 0.9613 0.0000
vn 0.7880 0.6157 0.0000
vn 1.0000 0.0000 0.0000
vn 0.0000 0.0000 1.0000
vn 0.0000 -1.0000 0.0000
vn 0.0000 1.0000 0.0000
vn -1.0000 0.0000 0.0000
vn 0.0000 0.0000 -1.0000
usemtl None
s off
f 166/68/13 165/69/13 69/70/13 79/71/13
f 79/71/14 69/70/14 70/72/14 80/73/14
f 80/73/15 70/72/15 71/74/15 81/75/15
f 81/75/16 71/74/16 72/76/16 82/77/16
f 82/77/17 72/76/17 73/78/17 83/79/17
f 85/80/18 84/81/18 68/82/18 78/83/18
f 153/84/19 87/85/19 77/86/19 152/87/19
f 164/88/20 99/89/20 75/90/20 162/91/20
f 97/92/21 89/93/21 76/94/21 94/95/21
f 103/96/22 88/97/22 75/98/22 99/99/22
f 134/100/19 93/101/19 89/93/19 117/102/19 131/103/19 137/104/19 161/105/19
f 126/106/18 85/80/18 78/83/18 114/107/18 119/108/18 127/109/18
f 83/79/18 73/78/18 84/81/18 85/80/18
f 162/110/23 75/111/23 88/112/23 163/113/23
f 74/114/23 90/115/23 92/116/23 86/117/23
f 117/102/21 89/93/21 97/92/21 141/118/21 143/119/21 131/103/21
f 102/120/20 101/121/20 90/122/20 74/123/20
f 89/93/19 93/101/19 91/124/19 76/94/19
f 76/94/20 91/124/20 98/125/20 94/126/20
f 116/127/22 88/97/22 103/96/22 150/128/22 151/129/22 130/130/22
f 87/85/22 96/131/22 95/132/22 77/86/22
f 100/133/21 97/92/21 94/95/21 102/134/21
f 152/87/20 77/86/20 95/135/20 154/136/20
f 86/137/21 100/133/21 102/134/21 74/138/21
f 86/117/23 92/116/23 135/139/23 136/140/23 128/141/23 115/142/23
f 94/126/20 98/125/20 101/121/20 102/120/20
f 140/143/22 96/131/22 87/85/22 118/144/22 129/145/22 142/146/22
f 96/131/22 103/96/22 99/99/22 95/132/22
f 168/147/13 120/148/13 105/149/13 167/150/13
f 120/148/14 121/151/14 106/152/14 105/149/14
f 121/151/15 122/153/15 107/154/15 106/152/15
f 122/153/16 123/155/16 108/156/16 107/154/16
f 123/155/17 124/157/17 109/158/17 108/156/17
f 127/109/18 119/108/18 104/159/18 125/160/18
f 156/161/19 155/162/19 113/163/19 129/145/19
f 160/164/24 158/165/24 111/166/24 145/167/24
f 143/119/21 138/168/21 112/169/21 131/103/21
f 151/129/22 145/170/22 111/171/22 130/130/22
f 124/157/18 127/109/18 125/160/18 109/158/18
f 158/172/23 159/173/23 130/174/23 111/175/23
f 110/176/23 128/141/23 136/140/23 132/177/23
f 149/178/24 110/179/24 132/180/24 148/181/24
f 131/103/19 112/169/19 133/182/19 137/104/19
f 112/169/24 138/183/24 144/184/24 133/182/24
f 129/145/22 113/163/22 139/185/22 142/146/22
f 147/186/21 149/187/21 138/168/21 143/119/21
f 155/162/24 157/188/24 139/189/24 113/163/24
f 128/190/21 110/191/21 149/187/21 147/186/21
f 138/183/24 149/178/24 148/181/24 144/184/24
f 142/146/22 139/185/22 145/170/22 151/129/22
f 91/124/20 152/87/20 154/136/20 98/125/20
f 93/101/19 153/84/19 152/87/19 91/124/19
f 133/182/24 144/184/24 157/188/24 155/162/24
f 137/104/19 133/182/19 155/162/19 156/161/19
f 132/177/23 136/140/23 159/173/23 158/172/23
f 148/181/24 132/180/24 158/165/24 160/164/24
f 90/115/23 162/110/23 163/113/23 92/116/23
f 101/121/20 164/88/20 162/91/20 90/122/20
f 99/89/20 164/88/20 154/136/20 95/135/20
f 153/84/19 156/161/19 129/145/19 87/85/19
f 145/167/24 139/189/24 157/188/24 160/164/24
f 159/173/23 163/113/23 88/112/23 130/174/23
f 78/83/13 68/82/13 165/69/13 166/68/13
f 119/108/13 168/147/13 167/150/13 104/159/13
f 166/68/13 168/147/13 119/108/13 78/83/13
f 146/192/21 100/133/21 86/137/21 115/193/21 128/190/21 147/186/21
